<?xml version="1.0" encoding="utf-8"?>
<!-- Generator: Adobe Illustrator 15.1.0, SVG Export Plug-In . SVG Version: 6.00 Build 0)  -->
<!DOCTYPE svg PUBLIC "-//W3C//DTD SVG 1.1//EN" "http://www.w3.org/Graphics/SVG/1.1/DTD/svg11.dtd">
<svg version="1.1" id="Layer_1" xmlns="http://www.w3.org/2000/svg" xmlns:xlink="http://www.w3.org/1999/xlink" x="0px" y="0px"
	 width="841.89px" height="595.28px" viewBox="0 0 841.89 595.28" enable-background="new 0 0 841.89 595.28" xml:space="preserve">
<g>
	<radialGradient id="SVGID_1_" cx="385.3325" cy="297.1426" r="64.7891" gradientUnits="userSpaceOnUse">
		<stop  offset="0.2209" style="stop-color:#00AEEF"/>
		<stop  offset="0.4479" style="stop-color:#00A1E4"/>
		<stop  offset="0.6626" style="stop-color:#005BAA"/>
		<stop  offset="0.8344" style="stop-color:#2E3192"/>
		<stop  offset="1" style="stop-color:#1B1464"/>
	</radialGradient>
	<path fill="url(#SVGID_1_)" d="M421.508,360.003c-34.71,0-62.847-28.137-62.847-62.845c0-34.708,28.137-62.845,62.847-62.845
		c2.822,0,5.598,0.189,8.321,0.55l-17.817-17.816c-40.079,4.7-71.176,38.771-71.176,80.111c0,41.247,30.958,75.26,70.906,80.08
		l17.738-17.736C426.87,359.832,424.209,360.003,421.508,360.003z"/>
	<radialGradient id="SVGID_2_" cx="446.9785" cy="297.1724" r="69.1097" gradientUnits="userSpaceOnUse">
		<stop  offset="0.2209" style="stop-color:#00AEEF"/>
		<stop  offset="0.4479" style="stop-color:#00A1E4"/>
		<stop  offset="0.6626" style="stop-color:#005BAA"/>
		<stop  offset="0.8344" style="stop-color:#2E3192"/>
		<stop  offset="1" style="stop-color:#1B1464"/>
	</radialGradient>
	<path fill="url(#SVGID_2_)" d="M502.178,297.158c0-43.836-34.964-79.505-78.525-80.642l23.061,23.06
		c22.158,9.713,37.64,31.837,37.64,57.582c0,14.354-4.815,27.583-12.915,38.163l-22.221-22.21c1.774-0.832,3.367-1.877,4.741-3.125
		c1.7-1.542,3.073-3.4,4.079-5.521c1.017-2.145,1.532-4.433,1.532-6.798v-26.43c0-2.365-0.517-4.633-1.536-6.741
		c-1.007-2.074-2.378-3.907-4.075-5.449c-1.688-1.53-3.698-2.762-5.978-3.662c-2.285-0.9-4.733-1.356-7.277-1.356h-5.367h-6.207
		h-18.484h-17.823h-1.043v1.043v16.166v26.43v42.927v1.043h1.043h14.05h1.043v-1.043v-25.771c0.895,0.119,1.806,0.182,2.73,0.182
		h17.416l31.878,31.879c-4.196,3.247-8.814,5.977-13.76,8.09l-22.832,22.832c18.685-0.418,35.798-7.192,49.272-18.241l18.264,18.264
		h11.295v-11.779l-18.046-18.038C495.414,334.134,502.178,316.437,502.178,297.158z M443.458,297.155
		c0,0.732-0.316,1.386-0.969,1.999c-0.67,0.629-1.498,0.935-2.532,0.935h-28.568c-1.033,0-1.861-0.306-2.53-0.935
		c-0.552-0.517-0.86-1.064-0.944-1.663v-25.946c0.084-0.598,0.393-1.146,0.944-1.664c0.67-0.628,1.498-0.935,2.53-0.935h28.568
		c1.032,0,1.861,0.307,2.533,0.937c0.65,0.613,0.968,1.267,0.968,1.997V297.155z"/>
</g>
</svg>
