<?xml version="1.0" encoding="utf-8"?>
<!-- Generator: Adobe Illustrator 15.1.0, SVG Export Plug-In . SVG Version: 6.00 Build 0)  -->
<!DOCTYPE svg PUBLIC "-//W3C//DTD SVG 1.1//EN" "http://www.w3.org/Graphics/SVG/1.1/DTD/svg11.dtd">
<svg version="1.1" id="Layer_1" xmlns="http://www.w3.org/2000/svg" xmlns:xlink="http://www.w3.org/1999/xlink" x="0px" y="0px"
	 width="841.89px" height="595.28px" viewBox="0 0 841.89 595.28" enable-background="new 0 0 841.89 595.28" xml:space="preserve">
<g>
	<radialGradient id="SVGID_1_" cx="291.3755" cy="295.7256" r="64.7888" gradientUnits="userSpaceOnUse">
		<stop  offset="0.2209" style="stop-color:#00AEEF"/>
		<stop  offset="0.4479" style="stop-color:#00A1E4"/>
		<stop  offset="0.6626" style="stop-color:#005BAA"/>
		<stop  offset="0.8344" style="stop-color:#2E3192"/>
		<stop  offset="1" style="stop-color:#1B1464"/>
	</radialGradient>
	<path fill="url(#SVGID_1_)" d="M327.551,358.586c-34.709,0-62.846-28.137-62.846-62.845s28.137-62.845,62.846-62.845
		c2.821,0,5.598,0.189,8.32,0.55l-17.816-17.816c-40.078,4.7-71.175,38.771-71.175,80.111c0,41.248,30.958,75.26,70.906,80.081
		l17.737-17.736C332.912,358.415,330.251,358.586,327.551,358.586z"/>
	<radialGradient id="SVGID_2_" cx="353.0215" cy="295.7549" r="69.1098" gradientUnits="userSpaceOnUse">
		<stop  offset="0.2209" style="stop-color:#00AEEF"/>
		<stop  offset="0.4479" style="stop-color:#00A1E4"/>
		<stop  offset="0.6626" style="stop-color:#005BAA"/>
		<stop  offset="0.8344" style="stop-color:#2E3192"/>
		<stop  offset="1" style="stop-color:#1B1464"/>
	</radialGradient>
	<path fill="url(#SVGID_2_)" d="M408.22,295.741c0-43.836-34.964-79.505-78.526-80.642l23.06,23.06
		c22.159,9.713,37.64,31.837,37.64,57.582c0,14.355-4.815,27.583-12.915,38.164l-22.22-22.21c1.774-0.832,3.367-1.877,4.741-3.125
		c1.7-1.542,3.073-3.4,4.079-5.521c1.017-2.145,1.533-4.433,1.533-6.798v-26.43c0-2.365-0.517-4.633-1.536-6.741
		c-1.007-2.074-2.378-3.907-4.075-5.449c-1.688-1.53-3.698-2.762-5.978-3.662c-2.285-0.9-4.733-1.356-7.277-1.356h-5.368h-6.207
		h-18.482h-17.823h-1.043v1.043v16.166v26.43v42.927v1.043h1.043h14.05h1.043v-1.043v-25.771c0.895,0.119,1.806,0.182,2.73,0.182
		h17.414l31.878,31.879c-4.196,3.247-8.814,5.977-13.76,8.09l-22.832,22.832c18.685-0.418,35.798-7.192,49.272-18.241l18.264,18.264
		h11.295v-11.779l-18.046-18.038C401.456,332.717,408.22,315.02,408.22,295.741z M349.5,295.737c0,0.732-0.316,1.386-0.969,1.999
		c-0.67,0.629-1.498,0.935-2.532,0.935h-28.566c-1.033,0-1.861-0.306-2.53-0.935c-0.552-0.517-0.86-1.064-0.944-1.664v-25.946
		c0.084-0.598,0.393-1.146,0.944-1.664c0.67-0.628,1.498-0.935,2.53-0.935h28.566c1.032,0,1.861,0.307,2.534,0.937
		c0.65,0.613,0.967,1.267,0.967,1.997V295.737z"/>
</g>
<path fill="#211D70" d="M434.876,255.813c-1.165,0-2.269-0.208-3.308-0.623c-1.04-0.415-1.945-0.986-2.714-1.713
	c-0.77-0.726-1.384-1.567-1.841-2.523c-0.457-0.954-0.686-1.993-0.686-3.114v-24.604c0-1.122,0.229-2.159,0.686-3.115
	c0.457-0.954,1.071-1.795,1.841-2.522c0.769-0.726,1.674-1.297,2.714-1.712c1.039-0.415,2.143-0.624,3.308-0.624h14.417
	c1.164,0,2.268,0.209,3.307,0.624c1.041,0.416,1.946,0.987,2.716,1.712c0.769,0.728,1.383,1.568,1.841,2.522
	c0.457,0.956,0.687,1.993,0.687,3.115v3.426h-6.727v-3.052c0-0.581-0.218-1.059-0.654-1.433c-0.437-0.373-0.944-0.561-1.526-0.561
	h-13.641c-0.664,0-1.204,0.199-1.619,0.594c-0.416,0.395-0.623,0.863-0.623,1.404v23.971c0,0.541,0.207,1.01,0.623,1.405
	c0.415,0.396,0.935,0.593,1.557,0.593h13.703c0.623,0,1.142-0.199,1.558-0.599c0.415-0.399,0.623-0.871,0.623-1.417v-3.528h6.727
	v3.8c0,1.121-0.229,2.16-0.687,3.114c-0.458,0.956-1.072,1.797-1.841,2.523c-0.77,0.727-1.675,1.298-2.716,1.713
	c-1.039,0.416-2.143,0.623-3.307,0.623H434.876z"/>
<path fill="#211D70" d="M493.221,262.758c-0.457,0.975-1.069,1.827-1.837,2.554c-0.769,0.726-1.672,1.298-2.71,1.713
	c-1.038,0.414-2.139,0.623-3.301,0.623h-14.077v-6.354h13.703c0.623,0,1.142-0.187,1.558-0.561c0.414-0.374,0.623-0.852,0.623-1.433
	v-3.488h-16.257c-1.163,0-2.265-0.197-3.302-0.592c-1.038-0.394-1.941-0.943-2.709-1.65c-0.77-0.705-1.382-1.535-1.838-2.491
	c-0.457-0.955-0.686-1.993-0.686-3.114v-20.742h6.728v20.368c0,0.582,0.207,1.059,0.623,1.433c0.415,0.374,0.935,0.561,1.557,0.561
	h15.884v-22.361h6.727v32.389C493.906,260.733,493.678,261.782,493.221,262.758z"/>
<path fill="#211D70" d="M501.318,215.264h6.664v11.959h15.883c1.163,0,2.264,0.208,3.302,0.623c1.038,0.416,1.951,0.987,2.741,1.713
	c0.788,0.727,1.401,1.568,1.837,2.523c0.437,0.955,0.654,1.993,0.654,3.114v20.617h-31.144L501.318,215.264z M525.672,235.508
	c0-0.54-0.208-1.018-0.623-1.433c-0.415-0.415-0.914-0.623-1.494-0.623h-15.572v16.132h17.752L525.672,235.508z"/>
<path fill="#211D70" d="M546.226,247.528c0,0.582,0.229,1.07,0.686,1.464c0.456,0.395,1.017,0.591,1.682,0.591h22.112v6.229h-22.673
	c-1.121,0-2.19-0.197-3.208-0.592c-1.018-0.394-1.91-0.943-2.678-1.65c-0.77-0.705-1.371-1.515-1.807-2.429
	c-0.436-0.913-0.654-1.91-0.654-2.99v-13.267c0-1.08,0.219-2.087,0.654-3.021s1.037-1.745,1.807-2.43
	c0.768-0.685,1.66-1.224,2.678-1.619c1.018-0.394,2.087-0.592,3.208-0.592h14.513c1.287,0,2.449,0.218,3.488,0.654
	c1.037,0.436,1.92,1.028,2.647,1.775c0.726,0.747,1.286,1.63,1.681,2.647s0.593,2.107,0.593,3.27v7.35h-24.729V247.528z
	 M564.289,235.508c0-0.582-0.218-1.069-0.654-1.464c-0.436-0.394-0.986-0.591-1.65-0.591h-13.392c-0.665,0-1.215,0.197-1.65,0.591
	c-0.437,0.395-0.654,0.883-0.654,1.464v1.681h18.001V235.508z"/>
<path fill="#211D70" d="M585.746,234.043c-0.436,0.395-0.654,0.863-0.654,1.402v20.368h-6.727v-20.928
	c0-1.08,0.228-2.087,0.686-3.021c0.456-0.934,1.068-1.745,1.838-2.43c0.768-0.685,1.671-1.224,2.709-1.619
	c1.037-0.394,2.139-0.592,3.301-0.592h8.533v6.229h-8.159C586.69,233.452,586.183,233.649,585.746,234.043z"/>
<path fill="#211D70" d="M466.095,290.357h6.727v28.59h-6.664L466.095,290.357z M466.157,278.398h6.664v6.353h-6.664V278.398z"/>
<path fill="#211D70" d="M481.584,318.947v-6.229h21.863c0.498,0,0.902-0.146,1.215-0.437c0.312-0.29,0.467-0.644,0.467-1.06v-1.868
	c0-0.414-0.155-0.768-0.467-1.059c-0.312-0.29-0.717-0.437-1.215-0.437h-15.074c-1.162,0-2.263-0.196-3.301-0.591
	s-1.941-0.944-2.709-1.651c-0.769-0.705-1.381-1.535-1.838-2.491c-0.457-0.954-0.685-1.972-0.685-3.052v-1.931
	c0-1.08,0.229-2.087,0.69-3.021c0.462-0.934,1.08-1.754,1.855-2.46c0.774-0.706,1.686-1.267,2.733-1.682
	c1.047-0.415,2.152-0.623,3.315-0.623h21.988v6.229h-22.112c-0.458,0-0.862,0.156-1.215,0.467s-0.529,0.696-0.529,1.152v1.807
	c0,0.415,0.165,0.769,0.498,1.059c0.332,0.291,0.748,0.437,1.246,0.437h15.073c1.162,0,2.263,0.208,3.301,0.622
	c1.038,0.416,1.941,0.977,2.71,1.683c0.768,0.706,1.37,1.525,1.806,2.46c0.437,0.935,0.655,1.941,0.655,3.021v1.868
	c0,1.08-0.222,2.097-0.661,3.052c-0.439,0.956-1.049,1.786-1.823,2.491c-0.775,0.707-1.688,1.257-2.734,1.651
	c-1.048,0.395-2.153,0.592-3.315,0.592H481.584z"/>
<path fill="#211D70" d="M541.922,290.357h8.721l-9.795,10.713c2.246,0.832,4.076,2.202,5.491,4.111
	c1.416,1.91,2.123,4.07,2.123,6.478v7.288h-6.727v-7.288c0-1.411-0.541-2.616-1.62-3.612c-1.08-0.997-2.388-1.495-3.924-1.495
	h-12.209v12.396h-6.727l0.062-40.549h6.664v21.8h9.406L541.922,290.357z"/>
<path fill="#211D70" d="M457.308,380.896l-8.799,0.062l-3.432-4.547h-10.234c-1.165,0-2.268-0.207-3.306-0.622
	c-1.041-0.415-1.945-0.986-2.715-1.714c-0.77-0.726-1.383-1.577-1.84-2.554c-0.457-0.975-0.687-2.024-0.687-3.146v-24.479
	c0-1.121,0.229-2.169,0.687-3.146c0.457-0.975,1.07-1.826,1.84-2.554c0.77-0.726,1.674-1.297,2.715-1.713
	c1.039-0.415,2.142-0.623,3.307-0.623h14.417c1.164,0,2.268,0.208,3.308,0.623c1.04,0.416,1.956,0.987,2.746,1.713
	c0.79,0.728,1.403,1.579,1.841,2.554c0.437,0.977,0.655,2.024,0.655,3.146v24.479c0,1.579-0.437,3.001-1.311,4.267
	c-0.873,1.268-1.995,2.232-3.365,2.896L457.308,380.896z M451.084,344.271c0-0.581-0.218-1.068-0.653-1.464
	c-0.437-0.394-0.945-0.592-1.526-0.592h-13.703c-0.623,0-1.143,0.198-1.558,0.592c-0.415,0.396-0.622,0.883-0.622,1.464v23.918
	c0,0.582,0.207,1.059,0.625,1.433c0.416,0.374,0.938,0.561,1.562,0.561h4.565l-3.12-3.924h8.584l3.109,3.924h0.56
	c0.622,0,1.141-0.187,1.556-0.561c0.414-0.374,0.621-0.851,0.621-1.433V344.271z"/>
<path fill="#211D70" d="M469.084,375.819c-1.039-0.394-1.941-0.944-2.709-1.65c-0.77-0.705-1.381-1.526-1.838-2.46
	c-0.457-0.935-0.685-1.941-0.685-3.021v-20.866h6.727v20.431c0,0.498,0.208,0.944,0.625,1.339c0.416,0.396,0.916,0.592,1.501,0.592
	h15.688v-22.361h6.727v28.59h-22.734C471.223,376.411,470.122,376.215,469.084,375.819z"/>
<path fill="#211D70" d="M509.561,376.411c-1.164,0-2.267-0.196-3.308-0.592c-1.04-0.394-1.945-0.944-2.714-1.65
	c-0.771-0.705-1.373-1.536-1.811-2.491s-0.655-1.972-0.655-3.053v-13.08c0-1.079,0.218-2.096,0.655-3.052
	c0.438-0.954,1.04-1.775,1.811-2.46c0.769-0.686,1.674-1.225,2.714-1.619c1.041-0.395,2.144-0.593,3.308-0.593h23.155l0.062,28.59
	H509.561z M509.973,354.051c-0.62,0-1.138,0.166-1.551,0.498c-0.415,0.333-0.621,0.769-0.621,1.308v12.396
	c0,0.498,0.206,0.944,0.621,1.339c0.413,0.396,0.931,0.592,1.551,0.592h16.016v-16.132H509.973z"/>
<path fill="#211D70" d="M564.107,355.981c0-0.54-0.208-0.997-0.623-1.37c-0.416-0.374-0.935-0.561-1.557-0.561h-15.635v22.36h-6.727
	v-28.59h22.734c1.162,0,2.264,0.198,3.302,0.593c1.037,0.395,1.94,0.934,2.709,1.619c0.769,0.685,1.38,1.494,1.838,2.429
	c0.456,0.935,0.685,1.941,0.685,3.021v20.928h-6.727V355.981z"/>
<path fill="#211D70" d="M584.35,376.411h-6.727v-40.549h6.727v11.959h5.98v6.229h-5.98V376.411z"/>
<path fill="#211D70" d="M450.636,318.947h8.704l-10.444-12.71h0.187c1.154,0,2.248-0.202,3.28-0.606s1.93-0.949,2.692-1.638
	c0.763-0.687,1.372-1.506,1.825-2.456c0.454-0.949,0.682-1.95,0.682-3.003V286.04c0-1.051-0.228-2.041-0.682-2.972
	c-0.453-0.93-1.062-1.738-1.825-2.426s-1.66-1.233-2.692-1.638s-2.126-0.606-3.28-0.606h-22.786v40.549h6.726v-12.879
	c0.57,0.11,1.158,0.169,1.763,0.169h5.407L450.636,318.947z M433.594,299.596c-0.303-0.282-0.492-0.594-0.572-0.932v-12.693
	c0.08-0.337,0.27-0.648,0.572-0.932c0.412-0.384,0.927-0.576,1.545-0.576h13.59c0.617,0,1.132,0.192,1.544,0.576
	c0.411,0.385,0.618,0.819,0.618,1.305v11.948c0,0.485-0.207,0.92-0.618,1.304c-0.412,0.385-0.927,0.576-1.544,0.576h-13.59
	C434.521,300.172,434.006,299.98,433.594,299.596z"/>
</svg>
